<svg width="24" height="24" viewBox="0 0 24 24" fill="none" xmlns="http://www.w3.org/2000/svg">
<path d="M2.03783 5.61086C2.01301 5.73673 2 5.86685 2 6V18C2 19.1046 2.89543 20 4 20H20C21.1046 20 22 19.1046 22 18V6C22 5.87994 21.9894 5.76236 21.9691 5.64812L21.1037 6.29717L13.2149 12.3298C12.4978 12.8782 11.5022 12.8782 10.7851 12.3298L2.88386 6.28768L2.03783 5.61086Z" fill="#671266"/>
<path d="M20.6767 4.11739C20.4654 4.04141 20.2375 4 20 4H4C3.77528 4 3.55921 4.03706 3.35758 4.10541L4.11616 4.71227L12 10.7411L19.9 4.69994L20.6767 4.11739Z" fill="#671266"/>
</svg>
