<svg width="24" height="24" viewBox="0 0 24 24" fill="none" xmlns="http://www.w3.org/2000/svg">
<path fill-rule="evenodd" clip-rule="evenodd" d="M4 4C2.89543 4 2 4.89543 2 6V18C2 19.1046 2.89543 20 4 20H20C21.1046 20 22 19.1046 22 18V6C22 4.89543 21.1046 4 20 4H4ZM14 9C14 8.44772 14.4477 8 15 8H18C18.5523 8 19 8.44772 19 9C19 9.55228 18.5523 10 18 10H15C14.4477 10 14 9.55228 14 9ZM14 12C14 11.4477 14.4477 11 15 11H18C18.5523 11 19 11.4477 19 12C19 12.5523 18.5523 13 18 13H15C14.4477 13 14 12.5523 14 12ZM14 15C14 14.4477 14.4477 14 15 14H18C18.5523 14 19 14.4477 19 15C19 15.5523 18.5523 16 18 16H15C14.4477 16 14 15.5523 14 15ZM6.00001 10C6.00001 8.34315 7.34315 7 9.00001 7C10.6569 7 12 8.34315 12 10C12 11.6569 10.6569 13 9.00001 13C7.34315 13 6.00001 11.6569 6.00001 10ZM7.94153 14C6.65023 14 5.50382 14.8263 5.09548 16.0513L5.05132 16.1838L5.04724 16.196C5.00516 16.3222 4.99152 16.3631 5.00501 16.3908C5.01149 16.4041 5.02423 16.4143 5.04307 16.4295C5.07467 16.4549 5.12346 16.4941 5.18877 16.5847C5.37672 16.8455 5.67856 17 6.00001 17H12C12.3215 17 12.6233 16.8455 12.8112 16.5847C12.8766 16.4941 12.9253 16.4549 12.9569 16.4295C12.9758 16.4143 12.9885 16.4041 12.995 16.3908C13.0085 16.3631 12.9949 16.3222 12.9528 16.1961L12.9528 16.196L12.9487 16.1838L12.9045 16.0513C12.4962 14.8263 11.3498 14 10.0585 14H7.94153Z" fill="#671266"/>
</svg>
