<svg width="24" height="24" viewBox="0 0 24 24" fill="none" xmlns="http://www.w3.org/2000/svg">
<path d="M12.0001 12.9999C13.6569 12.9999 15.0001 11.6568 15.0001 9.99994C15.0001 8.34309 13.6569 6.99994 12.0001 6.99994C10.3432 6.99994 9.00005 8.34309 9.00005 9.99994C9.00005 11.6568 10.3432 12.9999 12.0001 12.9999Z" stroke="#671266" stroke-width="2" stroke-linecap="round" stroke-linejoin="round"/>
<path d="M17.8001 13.9379H17.7891C18.5109 12.8799 18.9286 11.6441 18.9967 10.3651C19.0648 9.08607 18.7807 7.81289 18.1752 6.68419C17.5698 5.55548 16.6663 4.61452 15.5632 3.96376C14.46 3.31299 13.1994 2.97739 11.9187 2.99347C10.638 3.00956 9.3862 3.37673 8.29971 4.05499C7.21322 4.73326 6.33365 5.69662 5.75678 6.84018C5.17991 7.98373 4.92785 9.26364 5.02805 10.5405C5.12825 11.8174 5.57687 13.0424 6.32505 14.0819H6.30905L6.45005 14.2529C6.55005 14.3799 6.65005 14.5039 6.75005 14.6239L12.0001 20.9999L17.1301 14.7519C17.3231 14.5433 17.5034 14.3232 17.6701 14.0929L17.8001 13.9379Z" stroke="#671266" stroke-width="2" stroke-linecap="round" stroke-linejoin="round"/>
</svg>

